<svg width="52" height="46" viewBox="0 0 52 46" fill="none" xmlns="http://www.w3.org/2000/svg">
<path d="M45.1022 0H17.3947C13.9545 0 11.1652 3.16126 11.1652 6.97336C11.1652 8.27506 11.4441 9.48377 12.0949 10.5995H6.33029C2.98308 10.5995 0.100759 13.5748 0.00778036 17.2939C-0.0851978 19.3395 0.658628 21.292 2.0533 22.6867C3.16904 23.8954 4.74967 24.5462 6.23732 24.5462H19.4402L19.5332 24.7322L23.3453 32.0775H13.6756C13.4896 32.0775 13.3966 32.0775 13.2107 32.0775C12.0949 32.1704 10.9792 32.6353 10.0494 33.3792C8.46879 34.6809 7.53901 36.7264 7.53901 38.9578C7.53901 42.77 10.3284 45.8382 13.6756 45.8382H31.2484C31.3414 45.8382 31.4344 45.8382 31.5274 45.8382H31.7133H31.8993H31.9923H32.1782L32.2712 45.7453C33.015 45.1874 33.294 44.0716 32.8291 43.2348L28.738 35.3317H38.7797C38.9656 35.3317 39.0586 35.3317 39.2446 35.3317C40.4533 35.2387 41.569 34.7738 42.4988 34.03C44.0794 32.7283 45.1022 30.5898 45.1022 28.3583C45.1022 24.5462 42.3128 21.385 38.8726 21.385H37.571H21.3928L21.2998 21.199L17.4877 13.9467H44.9162C48.3564 13.9467 51.1458 10.9714 51.3317 7.2523C51.4247 5.20678 50.6809 3.25424 49.2862 1.85956C48.1705 0.650847 46.6828 0 45.1022 0ZM17.6736 21.199H6.33029C5.49349 21.199 4.74967 20.8271 4.1918 20.1763C3.44797 19.4324 3.07606 18.3167 3.16904 17.201C3.35499 15.4344 4.65669 13.9467 6.23732 13.9467H13.8615L17.6736 21.199ZM28.924 42.77H13.7685C12.0949 42.77 10.7932 41.3753 10.5143 39.5157C10.5143 39.3298 10.5143 39.2368 10.5143 39.0508C10.5143 38.121 10.7932 37.0983 11.4441 36.4474C11.816 35.9825 12.3739 35.6106 12.9317 35.4247C13.0247 35.3317 13.2107 35.3317 13.3966 35.3317C13.4896 35.3317 13.5826 35.3317 13.5826 35.3317H24.9259L25.0189 35.4247L28.924 42.77ZM38.7797 24.8252C40.4533 24.8252 41.8479 26.4988 41.8479 28.4513C41.8479 30.3109 40.6392 31.8915 39.0586 32.0775C38.9656 32.0775 38.8726 32.0775 38.8726 32.0775L28.4591 32.1704H26.9714L23.1593 24.8252H38.7797ZM17.2087 10.5995C17.2087 10.5995 17.1158 10.5995 17.2087 10.5995C16.3719 10.5065 15.7211 10.1346 15.2562 9.48377C14.9773 9.11186 14.7913 8.73995 14.6053 8.27506C14.5124 7.99612 14.4194 7.71719 14.4194 7.34527C14.3264 6.22954 14.6983 5.1138 15.4422 4.36997C15.907 3.71913 16.7438 3.34721 17.4877 3.34721H45.1022C46.6828 3.34721 47.9845 4.83486 48.0775 6.69443C48.1705 7.81016 47.7985 8.9259 47.0547 9.66973C46.4969 10.3206 45.6601 10.5995 44.9162 10.5995H34.2237C34.1308 10.5995 34.1308 10.5995 34.0378 10.5995H17.2087Z" fill="url(#paint0_linear)"/>
<defs>
<linearGradient id="paint0_linear" x1="25.6875" y1="-0.0153962" x2="25.6875" y2="45.8182" gradientUnits="userSpaceOnUse">
<stop stop-color="#6D41FF"/>
<stop offset="0.5" stop-color="#B43DE7"/>
<stop offset="1" stop-color="#FD89DA"/>
</linearGradient>
</defs>
</svg>
